<?xml version="1.0" encoding="utf-8"?>
<!-- Generator: Adobe Illustrator 16.0.0, SVG Export Plug-In . SVG Version: 6.00 Build 0)  -->
<!DOCTYPE svg PUBLIC "-//W3C//DTD SVG 1.1//EN" "http://www.w3.org/Graphics/SVG/1.1/DTD/svg11.dtd">
<svg version="1.1" id="Layer_1" xmlns="http://www.w3.org/2000/svg" xmlns:xlink="http://www.w3.org/1999/xlink" x="0px" y="0px"
	 width="40px" height="40px" viewBox="0 0 40 40" enable-background="new 0 0 40 40" xml:space="preserve">
<rect fill="#2E4356" width="40" height="40.333"/>
<path fill="#FFFFFF" d="M30,13c0,0.829-0.672,1.5-1.5,1.5h-17c-0.829,0-1.5-0.671-1.5-1.5l0,0c0-0.829,0.671-1.5,1.5-1.5h17
	C29.328,11.5,30,12.171,30,13L30,13z"/>
<path fill="#FFFFFF" d="M29.958,20c0,0.828-0.672,1.5-1.5,1.5h-17c-0.829,0-1.5-0.672-1.5-1.5l0,0c0-0.829,0.671-1.5,1.5-1.5h17
	C29.286,18.5,29.958,19.171,29.958,20L29.958,20z"/>
<path fill="#FFFFFF" d="M29.958,27c0,0.828-0.672,1.5-1.5,1.5h-17c-0.829,0-1.5-0.672-1.5-1.5l0,0c0-0.828,0.671-1.5,1.5-1.5h17
	C29.286,25.5,29.958,26.172,29.958,27L29.958,27z"/>
</svg>
