<?xml version="1.0" encoding="utf-8"?>
<!-- Generator: Adobe Illustrator 16.0.0, SVG Export Plug-In . SVG Version: 6.00 Build 0)  -->
<!DOCTYPE svg PUBLIC "-//W3C//DTD SVG 1.1//EN" "http://www.w3.org/Graphics/SVG/1.1/DTD/svg11.dtd">
<svg version="1.1" id="Layer_1" xmlns="http://www.w3.org/2000/svg" xmlns:xlink="http://www.w3.org/1999/xlink" x="0px" y="0px"
	 width="792px" height="612px" viewBox="0 0 792 612" enable-background="new 0 0 792 612" xml:space="preserve">
<circle fill="#BAE2DE" cx="404.696" cy="305" r="297.697"/>
<circle fill="#90B7B2" cx="404.696" cy="305.972" r="265.106"/>
<text transform="matrix(1 0 0 1 222.7515 295.7915)" fill="#4E6B6A" font-family="'Futura-Book'" font-size="81.5373">ORLEANS</text>
<rect x="226.714" y="295.792" fill="none" width="322.752" height="137.029"/>
<text transform="matrix(1 0 0 1 226.7153 370.5342)" fill="#4E6B6A" font-family="'Futura-Book'" font-size="90.5971">WAVE</text>
<path fill="#4E6B6A" d="M494.542,326.369c0,0,20.384-31.71,56.623-11.326c0,0,20.101,14.676,36.238,11.326
	c0,0,14.723-6.875,21.517-18.16c0,0-2.264,51-47.563,41.941c0,0-49.544-22.648-79.271,1.076
	C482.085,351.227,487.528,334.178,494.542,326.369z"/>
<path fill="#4E6B6A" d="M488.879,353.17c0,0,31.711-19.137,53.604-0.264c0,0-6.04,11.324-23.402,0
	C519.081,352.906,505.489,350.15,488.879,353.17z"/>
<path fill="#4E6B6A" d="M491.522,356.756c0,0,8.021-5.191,20.855,0.094C512.378,356.85,517.946,363.738,491.522,356.756z"/>
</svg>
